<?xml version="1.0" encoding="utf-8"?>
<!-- Generator: Adobe Illustrator 22.0.0, SVG Export Plug-In . SVG Version: 6.00 Build 0)  -->
<svg version="1.1" id="Layer_1" xmlns="http://www.w3.org/2000/svg" xmlns:xlink="http://www.w3.org/1999/xlink" x="0px"
	y="0px" viewBox="0 0 324 168" style="enable-background:new 0 0 324 168;" xml:space="preserve">
	<style type="text/css">
		.st0 {
			fill-rule: evenodd;
			clip-rule: evenodd;
			fill: #354395;
		}

		.st1 {
			fill-rule: evenodd;
			clip-rule: evenodd;
			fill: #F37321;
		}

		.st2 {
			fill-rule: evenodd;
			clip-rule: evenodd;
			fill: #449D46;
		}

		.st3 {
			fill: none;
			stroke: #FFFFFF;
			stroke-width: 1.2174;
			stroke-miterlimit: 2.6131;
		}
	</style>
	<g>
		<polygon class="st0" points="124.8,113.2 127.8,113.2 127.8,151.4 124.8,151.4 124.8,113.2 	" />
		<polygon class="st0"
			points="143.5,128.2 138.6,128.2 127.8,139 140.3,151.5 145.7,151.5 133.2,139 143.5,128.2 	" />
		<path class="st0" d="M159.5,126.7c-6.9,0-9.6,3.8-9.6,3.8l2.3,2.3c0,0,1.7-2.7,6.8-2.7c5,0,6.5,3.7,6.5,6.9c0,0-4.1-0.4-7.9,0
		c-3.9,0.4-8.9,2.6-8.9,8c0,5.3,5.1,6.8,8.9,6.8c3.8,0,7.9-3.2,7.9-4.2v3.8h3.4c0,0,0-6.7,0-13C168.8,132,167.7,126.7,159.5,126.7
		L159.5,126.7L159.5,126.7z M165.3,142.4c0,1.7-1.6,5.8-5.6,6.1c-4,0.3-6.8-1-6.7-3.9c0.1-3,2.8-4.9,6.8-4.9c4,0,5.5,0,5.5,0
		S165.3,140.6,165.3,142.4L165.3,142.4z" />
		<path class="st0" d="M244.5,126.7c-6.9,0-9.6,3.8-9.6,3.8l2.3,2.3c0,0,1.7-2.7,6.8-2.7c5,0,6.5,3.7,6.5,6.9c0,0-4.1-0.4-7.9,0
		c-3.9,0.4-8.9,2.6-8.9,8c0,5.3,5.1,6.8,8.9,6.8c3.8,0,7.9-3.2,7.9-4.2v3.8h3.4c0,0,0-6.7,0-13C253.9,132,252.7,126.7,244.5,126.7
		L244.5,126.7L244.5,126.7z M250.3,142.4c0,1.7-1.6,5.8-5.6,6.1c-4,0.3-6.8-1-6.7-3.9c0.1-3,2.8-4.9,6.8-4.9c4,0,5.5,0,5.5,0
		S250.3,140.6,250.3,142.4L250.3,142.4z" />
		<path class="st0" d="M302.2,126.7c-6.9,0-9.6,3.8-9.6,3.8l2.3,2.3c0,0,1.7-2.7,6.8-2.7c5,0,6.5,3.7,6.5,6.9c0,0-4.1-0.4-7.9,0
		c-3.9,0.4-8.9,2.6-8.9,8c0,5.3,5.1,6.8,8.9,6.8c3.8,0,7.9-3.2,7.9-4.2v3.8h3.4c0,0,0-6.7,0-13C311.6,132,310.4,126.7,302.2,126.7
		L302.2,126.7L302.2,126.7z M308,142.4c0,1.7-1.6,5.8-5.6,6.1c-4,0.3-6.8-1-6.7-3.9c0.1-3,2.8-4.9,6.8-4.9c4,0,5.5,0,5.5,0
		S308,140.6,308,142.4L308,142.4z" />
		<path class="st0" d="M177.4,128.1h2.9v4.3c0,0,2.6-4.9,8.3-4.9c5.7,0,9,4.1,9,11.5c0,7.4,0,12.6,0,12.6h-3.2c0,0,0-9.3,0-12.7
		c0-4.9-2.5-8.2-5.9-8.2c-3.4,0-7.7,0.8-7.7,11.2l0,9.6h-3.5V128.1L177.4,128.1z" />
		<path class="st0" d="M206.5,128.1h2.9v4.3c0,0,2.6-4.9,8.3-4.9c5.7,0,9.1,4.1,9.1,11.5c0,7.4,0,12.6,0,12.6h-3.2c0,0,0-9.3,0-12.7
		c0-4.9-2.5-8.2-5.9-8.2c-3.4,0-7.7,0.8-7.7,11.2v9.6h-3.5V128.1L206.5,128.1z" />
		<path class="st0" d="M272.5,127.6c-6.7,0-12.2,5.5-12.2,12.2c0,6.7,5.4,12.2,12.2,12.2c3.8,0,7.2-1.7,9.4-4.4V132
		C279.7,129.3,276.3,127.6,272.5,127.6L272.5,127.6L272.5,127.6z M272.5,149c-5.1,0-9.2-4.1-9.2-9.2c0-5.1,4.1-9.2,9.2-9.2
		c5.1,0,9.2,4.1,9.2,9.2C281.7,144.8,277.6,149,272.5,149L272.5,149z" />
		<path class="st0"
			d="M281.9,113.5V132c1.7,2.1,2.8,4.8,2.8,7.8c0,2.9-1,5.7-2.8,7.8v4.2h3.2v-38.1H281.9L281.9,113.5z" />
		<path class="st0" d="M281.9,132v15.5c1.7-2.1,2.8-4.8,2.8-7.8C284.7,136.8,283.6,134.1,281.9,132L281.9,132z" />
		<path class="st1" d="M160.4,32.3c3-1.9,6.8-3.6,11.9-5.3c3.9-1.3,5.5-0.7,9.5-1.8c1.9-0.5,13.1-3.2,16.8-4.3
		c3.9-1.1,8.8-1.7,14.8-2.1c6-0.5,14.4-1.1,18.5-1.2c4.1-0.2,13.1-0.3,18.1,0.2c5.1,0.5,4.6,0.4,5.8,1.2c1.1,0.9,1.6,0.6,1.8,0.4
		c0.2-0.3-1.1-1-1.1-1s1.8,0.4,3.6,0.8c1.8,0.4,3.2,0.4,3.8,0.5c0.5,0.2,0.4,0.8,1,0.8c0.5,0,2.5-0.2,3.9,0.4
		c1.5,0.5,2.5,0.4,3.2,0.7c0.7,0.4,0.7,0.6,1.1,0.6c0.5,0,0.4-0.4,1.4,0c0.9,0.4,2.8,0.8,4.9,1.5c2.2,0.7,3.2,0.8,4.3,1.3
		c1.2,0.5,1.8,1.5,2.4,1.7c0,0-1.4-0.1-2.8-0.2c-1.4-0.1-5.3-0.3-6-0.4c-1.1-0.2-2.3-1.3-3.9-1.5c-1.6-0.2-2.1,0.5-3.2,0.5
		c-1.1,0-0.4-1-1.9-0.9c-1.5,0.1-2.1,0.2-2.5,0.2c-0.3-0.1,0.1,0.7-0.1,0.7c-0.3,0.1-3.9-0.1-5-0.2c-1-0.1-2.8-1-4.9-1.1
		c-2.1-0.1-4.1,0.3-6.3,0.9c-2.2,0.6-5.9,0-10.7,0.4c-4.7,0.3-13.2,1.4-18.8,2.4c-5.6,1.1-7.6,0.6-12.1,1.6c-4.6,1-5.6,1.1-7.8,1.5
		c-2.2,0.4-7.4,2.4-10.1,3.5c-2.7,1.2-5.5,1.5-7,1.5c-1.5,0-2.5-0.5-4.5-0.5c-1.9,0-7.3,1.1-7.2,3.1c0,0-1,0-2,0.3
		c-1.1,0.4-3.5,1.1-4.8,1.7c-1.3,0.7-3,0.1-3.4,0c-0.4-0.2-1.2-0.2-1.6,0.1c0,0,0.1-0.6-0.2-0.9c-0.4-0.4-1.2-1.6-1.2-2.5
		C158.1,36,158.3,33.6,160.4,32.3L160.4,32.3z" />
		<path class="st2" d="M299.2,41.1c1.1,0.7,2.4,1.6,2.4,1.7c0,0,0.4,0.3-2.5-0.4c-1.3-0.4-5.4-0.5-6-0.7c-1.9-0.4-2.9-1.4-4-1.6
		c-1.7-0.2-2.5,0.6-3.1,0.5c-1.3-0.1-0.2-1-1.6-0.9c-1.5,0-2.4,0.1-2.6,0.1c-0.3-0.1-0.2,0.7-0.4,0.8c-0.3,0-3.8-0.4-4.8-0.4
		c-1.6-0.3-3.1-1.1-5.3-1.2c-2.1-0.2-3.4,0.2-6.1,0.6c-2.4,0.4-6-0.2-11-0.1c-4.8,0.2-13.4,0.8-19.2,1.6c-5.8,0.7-7.8,0.2-12.5,1
		c-4.6,0.7-5.7,0.8-8,1.1c-2.3,0.3-7.5,1.8-10.3,2.8c-2.8,1-5.7,1.1-7.3,1.1c-1.5-0.1-2.5-0.5-4.5-0.6c-2-0.1-7.9,0.7-7.8,2.5
		c0,0-1-0.1-2.1,0.2c-1.1,0.3-3.2,0.7-4.6,1.3c-1.4,0.5-3.1-0.1-3.5-0.2c-0.4-0.1-1.3-0.2-1.6,0c0,0,0.1-0.4-0.2-0.8
		c-0.4-0.3-1.2-1.4-1.2-2.2c0-0.8,0.4-2.8,2.5-3.9c3.1-1.6,7-3,12.2-4.4c4-1.1,5.7-0.5,9.6-1.3c2-0.4,13.5-2.5,17.4-3.3
		c3.9-0.8,9-1.1,15.2-1.3c6.1-0.2,14.7-0.7,18.9-0.7s13.9,0.2,19,0.9c5.2,0.6,4.6,0.4,5.8,1.2c1.1,0.9,2.1,0.6,2.3,0.4
		c0.3-0.3-1-0.9-1-0.9s1,0.4,2.7,0.8c1.8,0.4,3.9,0.8,4.4,1c0.5,0.1,0.4,0.7,1,0.7c0.5,0,1.8-0.1,3.3,0.4c1.5,0.5,2.5,0.4,3.2,0.7
		c0.6,0.4,0.7,0.7,1.1,0.8c0.5,0,0.4-0.4,1.4,0c0.9,0.4,2.3,0.6,4.5,1.3c0.5,0.2,1.8,0.9,2.2,1C297.8,40.6,298.7,40.8,299.2,41.1
		L299.2,41.1z" />
		<path class="st1" d="M290,26.1c0.1,0.2,0,0.4,0.3,0.4c0.3,0.1,0.4,0,0.7,0.1c0.3,0.1,0.3,0.1,0.4,0.3c0.1,0.3,0.3,0.4,0.5,0.3
		c0.3,0,0.4-0.4,0.2-0.4c-0.2-0.1-0.3-0.1-0.5-0.1c-0.3,0-0.3,0.1-0.4-0.1c-0.2-0.2-0.2-0.2-0.3-0.4c-0.2-0.2-0.2-0.3-0.5-0.3
		C289.9,26,290,26.1,290,26.1L290,26.1z" />
		<path class="st1" d="M294.4,27.8c0.2,0.3-0.2,0.4,0.1,0.4c0.3,0.1,0.2,0,0.4,0.3c0.1,0.2,0.2,0.2,0.3,0.2c0.2-0.1,0.3,0.1,0.4-0.1
		c0-0.3,0-0.5-0.2-0.6c-0.3,0-0.2,0.1-0.3,0c-0.1-0.2,0-0.3-0.3-0.3C294.6,27.8,294.3,27.7,294.4,27.8L294.4,27.8z" />
		<path class="st3" d="M282.1,27.8c0,0.3-0.1,0.4,0.1,0.5c0.3,0.1,0.5,0.1,0.9,0.2c0.4,0.1,0.5,0.2,1.1,0.3c0.4,0.1,0.7,0.3,1.1,0.4
		c0.4,0.1,0.5,0.1,1.1,0.2c0.5,0.2,0.5,0.2,0.8,0.3c0.4,0.1,0.6,0.3,1.1,0.4c0.4,0.1,0.5,0,1,0.2c0.5,0.1,0.5,0.1,0.9,0.3
		c0.3,0.1,0.7,0.2,1,0.2c0.2,0,0.5,0,0.5,0s-0.3-0.2-0.3-0.4c-0.1-0.2-0.4-0.8-1.1-0.8c-0.8,0.1-1.1-0.1-1.7-0.1
		c-0.4-0.1-0.8-0.1-1.1-0.2c-0.3-0.1-0.7-0.3-0.8-0.4c-0.2-0.1-0.4-0.4-0.6-0.6c-0.2-0.2-0.2-0.4-0.5-0.4c-0.3-0.2-1.1-0.3-1.5-0.3
		c-0.4,0-1.2-0.1-1.5,0C282.2,27.6,282.2,27.6,282.1,27.8" />
		<path class="st1" d="M292.1,30.7c0.4-0.1,0.3-0.2,0.8-0.2c0.6,0,1.3,0.2,1.5,0.2c0.1,0,0.7,0,1.3,0.4c0.5,0.4,0.7,0.4,1,0.5
		c0.3,0.3,0.6,0.4,0.4,0.4c-0.2,0.1-0.8,0-1.1-0.2c-0.4-0.1-1-0.3-1.4-0.4c-0.5-0.1-0.8-0.2-1.1-0.3c-0.4,0-0.7-0.1-1-0.2
		C292.2,31,291.8,30.8,292.1,30.7L292.1,30.7z" />
		<path class="st1" d="M302.8,32.7c-0.1,0.1,0.4,0.6,1,0.9c0.6,0.2,0.7,0.4,1.1,0.8c0.4,0.4,0.7,0.6,1.1,0.9c0.4,0.3,0.4,0.2,0.9,0.4
		c0.4,0.3,0.9,0.5,1.1,0.4c0.1-0.1,0-0.3-0.4-0.6c-0.3-0.4-1.4-1.1-1.9-1.5c-0.5-0.3-1.2-0.8-1.6-1C303.8,32.8,303,32.6,302.8,32.7
		L302.8,32.7z" />
		<path class="st0" d="M33.7,62.1c-15.1,0-24.2,10.4-24.2,23.1c0,12.6,9.3,22.9,24.2,22.9c14.1,0,23.7-10.3,23.7-22.9
		C57.4,72.5,47.5,62.1,33.7,62.1L33.7,62.1z M33.5,98.6L33.5,98.6c-7.3,0-13.2-6.1-13.2-13.4c0-7.4,6-13.5,13.2-13.5
		c7.4,0,13.1,6.1,13.1,13.5C46.5,92.4,40.8,98.6,33.5,98.6L33.5,98.6z" />
		<path class="st0" d="M61.3,63h10.2v7.5c0,0,2.6-8.3,14-8.3c11.3,0,15.6,7.4,15.6,16.7c0,9.3,0,28.4,0,28.4H90.5c0,0,0-18.6,0-23.7
		c0-5.1-1.4-11.8-8.4-11.8C75,71.7,72,76.8,72,83c0,6,0,24.1,0,24.1H61.3V63L61.3,63z" />
		<path class="st0" d="M128,99.6c-11.2-0.1-12.2-10.9-12.2-10.9h33.8c0-7.4,0-10.2-1.7-14.3c-1.8-4.1-6.1-12.5-18.9-12.5
		c-12.8,0-24,8.5-24,23c0,14.4,11.2,23.4,24.1,23.4c13,0,18.7-8.8,18.7-8.8l-7.8-6C139.9,93.6,135.8,99.6,128,99.6L128,99.6z
		 M127.4,70.1L127.4,70.1c11.7,0,11.3,10.6,11.3,10.6H116C116,80.7,116.9,70.2,127.4,70.1L127.4,70.1z" />
		<polygon class="st0" points="160.7,107.1 154.8,107.1 154.8,63.9 160.7,63.9 160.7,107.1 	" />
		<path class="st0" d="M188.7,68.4c12.4,0,11,13.1,11,18c0,2.4,0,20.7,0,20.7h6c0,0,0-21,0-26.7c0-5.7-0.4-9.4-4.7-13.7
		c-1.7-1.6-5.9-3.7-11.1-3.7c-2.3,0-6.4,0.5-10,3.1c-3.6,2.5-4.6,4.3-5,5v-7.1h-6v43.1h5.9c0,0,0-14.8,0-19.6
		c0-5.3,0.1-8.9,2.5-12.8C179.8,70.7,183.4,68.4,188.7,68.4L188.7,68.4z" />
		<path class="st0" d="M250,45.1v26.3c-1.4-2.2-7.1-8.5-17.5-8.5c-10.3,0-22.4,7.7-22.4,22.4c0,14.6,10.7,22.9,22.7,22.9
		c12.1,0,17.3-8.2,17.3-8.2v7.2h5.9v-62H250L250,45.1z M233.5,102.9L233.5,102.9c-10,0-16.8-7.6-16.8-17c0-10.3,6.8-17.6,16.8-17.6
		c9.4,0,17,8.2,17,17.6C250.5,95.2,242.8,102.9,233.5,102.9L233.5,102.9z" />
		<polygon class="st0" points="270,107.1 264.2,107.1 264.2,64.2 270,64.2 270,107.1 	" />
		<path class="st0" d="M271.5,51.1c0,2.6-2.1,4.6-4.6,4.6c-2.6,0-4.7-2-4.7-4.6c0-2.5,2.1-4.6,4.7-4.6
		C269.4,46.5,271.5,48.6,271.5,51.1L271.5,51.1z" />
		<path class="st0" d="M162.3,51.1c0,2.6-2,4.6-4.6,4.6c-2.5,0-4.6-2-4.6-4.6c0-2.5,2.1-4.6,4.6-4.6
		C160.3,46.5,162.3,48.6,162.3,51.1L162.3,51.1z" />
		<path class="st0" d="M311.4,96c0-7,0-15.3,0-18.1c0-2.9-0.3-9.7-7.8-13.4c-7.5-3.6-21-0.8-25.9,4.6l3.6,4.5c0,0,3.2-3.1,7.2-4.4
		c3.9-1.3,13.2-1.6,15.8,4.1c0,0,1.4,2.8,1.4,7.6c0,0-7.5,0.1-11,0.3c-3.2,0.2-19,1-19,15.3c0,3,1.8,11.7,15.5,11.7
		c10.8,0,14.6-7.9,14.6-7.9s0.4,7,1.1,7l5.3-0.2C312.2,107.1,311.4,103,311.4,96L311.4,96z M292.7,102.9L292.7,102.9
		c-13.4,0-14.3-14.5-0.4-16.3c0,0,9.6-1.5,13.4-0.7C305.7,85.9,307.4,102.9,292.7,102.9L292.7,102.9z" />
		<path class="st2" d="M297.5,44c0,0.3,0.3,0.3,0.9,0.4c0.7,0.2,2.1,0.5,2.6,0.7c0.4,0.2,1.2,0.6,2.1,0.9c0.8,0.3,0.3,0-0.5-0.4
		c-0.9-0.5-1.1-0.5-1.3-1.1c-0.3-0.4-0.3-0.7-1.2-0.7c-0.8,0-1.7-0.2-1.9-0.1C298,43.6,297.5,43.7,297.5,44L297.5,44z" />
	</g>
</svg>