<?xml version="1.0" encoding="utf-8"?>
<!-- Generator: Adobe Illustrator 25.0.1, SVG Export Plug-In . SVG Version: 6.00 Build 0)  -->
<svg version="1.1" id="Layer_1" xmlns="http://www.w3.org/2000/svg" xmlns:xlink="http://www.w3.org/1999/xlink" x="0px"
	y="0px" viewBox="0 0 737 419" style="enable-background:new 0 0 737 419;" xml:space="preserve">
	<style type="text/css">
		.st0 {
			fill: #F6901E;
		}
	</style>
	<g>
		<path class="st0"
			d="M213.15,366l45.19-66.65h-8.27c-16.22,0-29.42-13.2-29.42-29.42v-63.69c0-16.22,13.2-29.42,29.42-29.42h51.52
		c16.22,0,29.42,13.2,29.42,29.42v63.69c0,5.3-1.43,10.5-4.14,15.04c-0.09,0.15-0.18,0.29-2.92,4.46L273.11,366H213.15z" />
		<path d="M33.3,176.67h52.68v29.89c3-3.92,6.3-7.68,9.88-11.26c3.58-3.58,7.57-6.76,11.96-9.53c4.39-2.77,9.24-4.97,14.56-6.59
		c5.31-1.61,11.32-2.43,18.03-2.43c20.1,0,35.64,6.13,46.61,18.37c10.97,12.25,16.47,29.12,16.47,50.61V366H150.8V262.37
		c0-12.48-2.77-21.89-8.32-28.25c-5.55-6.35-13.4-9.53-23.57-9.53s-18.2,3.18-24.08,9.53c-5.89,6.35-8.84,15.76-8.84,28.25V366H33.3
		V176.67z" />
		<path d="M348.03,176.67h52.68v29.89c3-3.92,6.3-7.68,9.88-11.26c3.58-3.58,7.57-6.76,11.96-9.53s9.24-4.97,14.56-6.59
		c5.31-1.61,11.32-2.43,18.03-2.43c20.1,0,35.64,6.13,46.61,18.37c10.97,12.25,16.47,29.12,16.47,50.61V366h-52.68V262.37
		c0-12.48-2.77-21.89-8.32-28.25c-5.55-6.35-13.4-9.53-23.57-9.53c-10.17,0-18.2,3.18-24.08,9.53c-5.89,6.35-8.84,15.76-8.84,28.25
		V366h-52.68V176.67z" />
		<path d="M630.16,366c-13.57,0-26.19-2.26-37.84-6.79c-11.66-4.52-21.72-10.97-30.21-19.35c-8.49-8.37-15.1-18.26-19.85-29.69
		c-4.75-11.42-7.13-24.15-7.13-38.18v-0.68c0-12.9,2.2-25.12,6.62-36.66c4.41-11.53,10.57-21.6,18.49-30.2
		c7.92-8.6,17.37-15.39,28.34-20.37c10.97-4.97,23.13-7.47,36.49-7.47c15.16,0,28.28,2.72,39.38,8.15
		c11.08,5.43,20.31,12.73,27.66,21.89c7.35,9.17,12.78,19.69,16.29,31.57c3.51,11.88,5.26,24.26,5.26,37.16
		c0,2.04-0.06,4.19-0.17,6.45c-0.12,2.26-0.28,4.64-0.51,7.13h-126.6c2.49,11.77,7.63,20.65,15.44,26.65
		c7.81,6,17.48,8.99,29.02,8.99c8.6,0,16.29-1.47,23.08-4.41c6.78-2.94,13.8-7.69,21.04-14.26l29.53,26.13
		c-8.6,10.64-19.01,18.96-31.23,24.95C661.05,363,646.68,366,630.16,366z M663.43,256.71c-1.58-11.53-5.66-20.87-12.22-28
		c-6.57-7.13-15.28-10.69-26.14-10.69s-19.63,3.51-26.3,10.52c-6.68,7.01-11.03,16.4-13.07,28.17H663.43z" />
		<path d="M33.08,45.15h31.82v18.11c7.33-9.42,16.75-18,32.87-18c24.08,0,38.1,15.91,38.1,41.66v72.65h-31.82v-62.6
		c0-15.07-7.12-22.82-19.26-22.82c-12.14,0-19.89,7.75-19.89,22.82v62.6H33.08V45.15z" />
		<path d="M149.3,102.78v-0.41c0-31.38,22.36-57.22,54.35-57.22c36.71,0,53.53,28.51,53.53,59.68c0,2.46-0.21,5.33-0.41,8.2h-76.5
		c3.08,14.15,12.92,21.54,26.87,21.54c10.46,0,18.05-3.28,26.66-11.28l17.84,15.79c-10.25,12.72-25.02,20.51-44.92,20.51
		C173.7,159.59,149.3,136.41,149.3,102.78z M226.83,93.55c-1.85-13.95-10.05-23.38-23.18-23.38c-12.92,0-21.33,9.23-23.79,23.38
		H226.83z" />
		<path d="M256.84,45.15h32.51l18.3,69.02l21.32-69.03h27.66l21.53,69.25l18.71-69.23h31.88l-35.39,114.41h-28.92l-21.74-69.46
		l-22.17,69.46h-28.71L256.84,45.15z" />
		<path d="M428.37,142.86l13.43-20.66c11.98,8.68,24.58,13.22,34.91,13.22c9.09,0,13.22-3.31,13.22-8.26v-0.41
		c0-6.82-10.74-9.09-22.93-12.81c-15.49-4.54-33.05-11.77-33.05-33.25v-0.41c0-22.51,18.18-35.11,40.48-35.11
		c14.05,0,29.33,4.75,41.31,12.81l-11.98,21.69c-10.95-6.4-21.89-10.33-29.95-10.33c-7.64,0-11.57,3.3-11.57,7.64v0.41
		c0,6.2,10.53,9.09,22.51,13.22c15.49,5.16,33.46,12.6,33.46,32.84v0.41c0,24.58-18.38,35.73-42.34,35.73
		C460.39,159.59,443.04,154.43,428.37,142.86z" />
	</g>
</svg>