<svg xmlns="http://www.w3.org/2000/svg" width="118" height="60" viewBox="0 0 118 60" fill="none">
  <path d="M5.14774 11.3864C2.58502 13.9493 1.30444 17.3238 1.30444 21.5052C1.30444 25.6704 2.58971 29.0397 5.16182 31.612C7.73341 34.186 11.1005 35.4724 15.263 35.4724C19.4427 35.4724 22.8155 34.1907 25.3777 31.6261C27.9404 29.0616 29.2221 25.6886 29.2221 21.5052C29.2221 17.3051 27.9451 13.9279 25.3913 11.3723C22.838 8.81712 19.4615 7.54006 15.263 7.54006C11.0827 7.54006 7.71098 8.82181 5.14774 11.3864ZM11.1735 28.9264C9.77398 28.2255 8.70101 27.2031 7.95666 25.8567C7.24778 24.5749 6.89256 23.1241 6.89256 21.5052C6.89256 19.7329 7.28794 18.2105 8.07924 16.9366C9.66079 14.3997 12.055 13.1326 15.263 13.1326C17.5346 13.1326 19.4699 13.8408 21.0697 15.2587C22.7785 16.7691 23.6324 18.8509 23.6324 21.5052C23.6324 23.2796 23.2375 24.7972 22.4462 26.0613C20.8657 28.6075 18.471 29.8799 15.263 29.8799C13.8082 29.8799 12.4457 29.5615 11.1735 28.9264Z" fill="url(#paint0_linear_1237_1026)"/>
  <path d="M96.3793 11.3864C93.816 13.9493 92.5349 17.3238 92.5349 21.5052C92.5349 25.6704 93.8207 29.0397 96.3918 31.612C98.9644 34.186 102.33 35.4724 106.493 35.4724C107.884 35.4724 109.189 35.3216 110.406 35.022C112.896 34.4219 114.96 33.2852 116.595 31.612L112.519 27.5345C110.919 29.0986 108.911 29.8799 106.493 29.8799C105.04 29.8799 103.677 29.5615 102.403 28.9264C101.004 28.2255 99.9315 27.2031 99.1866 25.8567C98.4782 24.5749 98.1225 23.1241 98.1225 21.5052C98.1225 19.7329 98.5189 18.2105 99.3092 16.9366C100.891 14.3997 103.285 13.1326 106.493 13.1326C108.911 13.1326 110.919 13.9138 112.519 15.4785L116.623 11.3723C114.068 8.81712 110.691 7.54006 106.493 7.54006C102.314 7.54006 98.9409 8.82181 96.3793 11.3864Z" fill="url(#paint1_linear_1237_1026)"/>
  <path d="M72.395 11.7758C72.395 12.1949 72.7356 12.5352 73.1545 12.5352C73.5734 12.5352 73.9135 12.1949 73.9135 11.7758C73.9135 11.3578 73.5734 11.017 73.1545 11.017C72.7356 11.017 72.395 11.3578 72.395 11.7758Z" fill="url(#paint2_linear_1237_1026)"/>
  <path d="M78.5575 9.45485C78.8637 10.1672 79.0332 10.9516 79.0332 11.7757C79.0332 12.4072 78.9331 13.0141 78.7495 13.584C79.8136 13.9358 80.7812 14.4905 81.6476 15.2587C83.3554 16.7691 84.2092 18.8509 84.2092 21.5052C84.2092 23.2796 83.8149 24.7972 83.0236 26.0613C81.4426 28.6075 79.0483 29.8799 75.8409 29.8799H67.4705V22.6043C66.8393 24.183 65.2964 25.3019 63.4957 25.3019C62.9251 25.3019 62.3805 25.1881 61.8818 24.9846V35.4724H75.8409C80.0201 35.4724 83.3929 34.1907 85.9546 31.6261C88.5194 29.0616 89.7989 25.6886 89.7989 21.5052C89.7989 17.3051 88.5225 13.9279 85.9702 11.3723C84.3193 9.72154 82.3241 8.60784 79.9878 8.02385L78.5575 9.45485Z" fill="url(#paint3_linear_1237_1026)"/>
  <mask id="mask0_1237_1026" style="mask-type:luminance" maskUnits="userSpaceOnUse" x="-22" y="-22" width="162" height="104">
    <path d="M-21.7334 -21.6666H139.933V81.6667H-21.7334V-21.6666Z" fill="white"/>
  </mask>
  <g mask="url(#mask0_1237_1026)">
    <path d="M75.4556 13.9204C75.381 13.9449 75.3226 14.0034 75.2981 14.078L74.9752 15.0576L73.8887 12.5108L76.4347 13.5974L75.4556 13.9204ZM77.2328 13.3991L73.5162 11.8125C73.3112 11.7254 73.1036 11.9331 73.1913 12.1377L74.777 15.8561C74.8166 15.9495 74.9105 16.0106 75.0154 16.0064C75.1181 16.0022 75.2078 15.9344 75.2402 15.8363L75.7295 14.352L77.213 13.8625C77.311 13.8301 77.3783 13.7404 77.383 13.6376C77.3872 13.5342 77.3272 13.4392 77.2328 13.3991Z" fill="#929497"/>
    <path d="M73.1549 9.03718C71.6454 9.03718 70.4175 10.2657 70.4175 11.776C70.4175 13.2864 71.6454 14.5149 73.1549 14.5149C73.3532 14.5149 73.5143 14.3536 73.5143 14.1558C73.5143 13.9575 73.3532 13.7963 73.1549 13.7963C72.0418 13.7963 71.1358 12.8903 71.1358 11.776C71.1358 10.6623 72.0418 9.75582 73.1549 9.75582C74.2681 9.75582 75.1741 10.6623 75.1741 11.776C75.1741 11.9744 75.3353 12.1356 75.533 12.1356C75.7312 12.1356 75.8924 11.9744 75.8924 11.776C75.8924 10.2657 74.6645 9.03718 73.1549 9.03718Z" fill="#44813D"/>
    <path d="M76.2199 8.70948C75.3973 7.88646 74.3092 7.43347 73.1549 7.43347C72.0005 7.43347 70.9119 7.88646 70.0893 8.70948C68.3993 10.4004 68.3993 13.1518 70.0893 14.8432C70.9114 15.6652 72 16.1182 73.1549 16.1182C73.3531 16.1182 73.5137 15.9569 73.5137 15.7586C73.5137 15.5608 73.3531 15.3995 73.1549 15.3995C71.1581 15.3995 69.5333 13.7739 69.5333 11.7761C69.5333 9.7783 71.1581 8.15315 73.1549 8.15315C75.1516 8.15315 76.776 9.7783 76.776 11.7761C76.776 11.9744 76.9371 12.1357 77.1354 12.1357C77.333 12.1357 77.4942 11.9744 77.4942 11.7761C77.4942 10.6206 77.042 9.53197 76.2199 8.70948Z" fill="#F19B49"/>
  </g>
  <path d="M30.9131 35.4724H36.5017V17.5832L47.666 26.5184V20.9478L30.9131 7.54006V35.4724Z" fill="url(#paint4_linear_1237_1026)"/>
  <path d="M57.241 7.54016H55.6579H51.6514V30.9973L57.241 35.4709V13.1327H67.434C67.3313 12.6969 67.2749 12.2434 67.2749 11.7758C67.2749 10.9517 67.4455 10.1668 67.7512 9.45495L66.7757 8.47799C65.7388 8.58289 64.7696 8.20452 64.0717 7.54016H57.241Z" fill="url(#paint5_linear_1237_1026)"/>
  <path d="M77.0037 16.2202L78.4324 17.6496C78.2842 17.9001 78.1935 18.1877 78.1935 18.4987C78.1935 19.4251 78.9472 20.1792 79.8736 20.1792C80.8 20.1792 81.5537 19.4251 81.5537 18.4987C81.5537 17.5713 80.8 16.8183 79.8736 16.8183C79.5632 16.8183 79.2758 16.908 79.0255 17.0562L77.5967 15.6263C77.4137 15.8382 77.2154 16.0365 77.0037 16.2202ZM79.0333 18.4987C79.0333 18.0348 79.4104 17.6585 79.8736 17.6585C80.3368 17.6585 80.7139 18.0348 80.7139 18.4987C80.7139 18.9622 80.3368 19.339 79.8736 19.339C79.4104 19.339 79.0333 18.9622 79.0333 18.4987Z" fill="url(#paint6_linear_1237_1026)"/>
  <path d="M79.0333 3.79297C79.0333 4.2277 79.1444 4.63686 79.339 4.99435L77.0032 7.33083C77.215 7.51506 77.4137 7.71337 77.5968 7.92578L79.8643 5.65766C80.3113 6.06369 80.9028 6.31367 81.5538 6.31367C82.9434 6.31367 84.0732 5.18327 84.0732 3.79297C84.0732 2.40266 82.9434 1.27174 81.5538 1.27174C80.1642 1.27174 79.0333 2.40266 79.0333 3.79297ZM79.8737 3.79297C79.8737 2.8661 80.6269 2.11198 81.5538 2.11198C82.4797 2.11198 83.2334 2.8661 83.2334 3.79297C83.2334 4.71931 82.4797 5.47344 81.5538 5.47344C80.6269 5.47344 79.8737 4.71931 79.8737 3.79297Z" fill="url(#paint7_linear_1237_1026)"/>
  <path d="M64.7551 5.05312C64.7551 5.97999 65.5083 6.73359 66.4347 6.73359C66.7456 6.73359 67.033 6.6433 67.2829 6.49561L68.7116 7.92505C68.8952 7.71316 69.094 7.51433 69.3057 7.33063L67.8765 5.9017C68.0246 5.65119 68.1144 5.36416 68.1144 5.05312C68.1144 4.12625 67.3617 3.37212 66.4347 3.37212C65.5083 3.37212 64.7551 4.12625 64.7551 5.05312ZM65.5949 5.05312C65.5949 4.58968 65.9721 4.21288 66.4347 4.21288C66.8979 4.21288 67.2746 4.58968 67.2746 5.05312C67.2746 5.51655 66.8979 5.89335 66.4347 5.89335C65.9721 5.89335 65.5949 5.51655 65.5949 5.05312Z" fill="url(#paint8_linear_1237_1026)"/>
  <path d="M65.1853 19.1546C64.7383 18.7481 64.1462 18.4986 63.4953 18.4986C62.1057 18.4986 60.9758 19.629 60.9758 21.0193C60.9758 22.4096 62.1057 23.54 63.4953 23.54C64.8854 23.54 66.0152 22.4096 66.0152 21.0193C66.0152 20.5846 65.9046 20.1754 65.7106 19.818L69.3061 16.2206C69.0943 16.0369 68.8956 15.8381 68.712 15.6262L65.1853 19.1546ZM61.8156 21.0193C61.8156 20.0925 62.5694 19.3389 63.4953 19.3389C64.4222 19.3389 65.1754 20.0925 65.1754 21.0193C65.1754 21.9462 64.4222 22.6998 63.4953 22.6998C62.5694 22.6998 61.8156 21.9462 61.8156 21.0193Z" fill="url(#paint9_linear_1237_1026)"/>
  <path d="M73.1544 17.6582C73.0131 17.6582 72.8738 17.6509 72.7345 17.6415V19.3763C71.5452 19.5772 70.635 20.6126 70.635 21.8594C70.635 23.2497 71.7654 24.3801 73.155 24.3801C74.5445 24.3801 75.6744 23.2497 75.6744 21.8594C75.6744 20.6132 74.7647 19.5777 73.5743 19.3763V17.641C73.4356 17.6509 73.2958 17.6582 73.1544 17.6582ZM71.4748 21.8594C71.4748 20.9326 72.228 20.1789 73.1544 20.1789C74.0808 20.1789 74.8341 20.9326 74.8341 21.8594C74.8341 22.7863 74.0808 23.5399 73.1544 23.5399C72.228 23.5399 71.4748 22.7863 71.4748 21.8594Z" fill="url(#paint10_linear_1237_1026)"/>
  <mask id="mask1_1237_1026" style="mask-type:luminance" maskUnits="userSpaceOnUse" x="-22" y="-22" width="162" height="104">
    <path d="M-21.7334 -21.6666H139.933V81.6667H-21.7334V-21.6666Z" fill="white"/>
  </mask>
  <g mask="url(#mask1_1237_1026)">
    <path d="M15.0664 41.7755V58.0959H12.0874L4.99076 47.8242H4.87131V58.0959H1.42236V41.7755H4.4488L11.4901 52.0395H11.6331V41.7755H15.0664Z" fill="#5F6060"/>
    <path d="M17.8872 58.0959V41.7755H28.8788V44.6203H21.3362V48.5089H28.3133V51.3542H21.3362V55.2511H28.9106V58.0959H17.8872Z" fill="#5F6060"/>
    <path d="M31.4314 44.6203V41.7755H44.8287V44.6203H39.8347V58.0959H36.4254V44.6203H31.4314Z" fill="#5F6060"/>
    <path d="M50.6924 58.0959L46.0249 41.7755H49.792L52.4925 53.1151H52.6281L55.6071 41.7755H58.8328L61.8039 53.1391H61.9473L64.6473 41.7755H68.4154L63.7469 58.0959H60.3861L57.2794 47.4255H57.1521L54.0537 58.0959H50.6924Z" fill="#5F6060"/>
    <path d="M81.6592 49.9355C81.6592 48.7827 81.4876 47.8109 81.1454 47.0187C80.8027 46.2275 80.3212 45.6268 79.6995 45.2182C79.0782 44.809 78.3506 44.6045 77.5175 44.6045C76.6835 44.6045 75.9558 44.809 75.3346 45.2182C74.7138 45.6268 74.2319 46.2275 73.8892 47.0187C73.5464 47.8109 73.3754 48.7827 73.3754 49.9355C73.3754 51.0889 73.5464 52.0606 73.8892 52.8523C74.2319 53.644 74.7138 54.2447 75.3346 54.6534C75.9558 55.0625 76.6835 55.2671 77.5175 55.2671C78.3506 55.2671 79.0782 55.0625 79.6995 54.6534C80.3212 54.2447 80.8027 53.644 81.1454 52.8523C81.4876 52.0606 81.6592 51.0889 81.6592 49.9355ZM85.1556 49.9355C85.1556 51.7157 84.8197 53.2297 84.1478 54.478C83.476 55.7269 82.5626 56.6788 81.4083 57.3353C80.2534 57.9913 78.9556 58.3191 77.5175 58.3191C76.0674 58.3191 74.7665 57.9903 73.6143 57.3312C72.462 56.672 71.5513 55.7185 70.8825 54.4697C70.2133 53.2218 69.8784 51.7099 69.8784 49.9355C69.8784 48.1559 70.2133 46.6414 70.8825 45.3936C71.5513 44.1447 72.462 43.1928 73.6143 42.5362C74.7665 41.8802 76.0674 41.5525 77.5175 41.5525C78.9556 41.5525 80.2534 41.8802 81.4083 42.5362C82.5626 43.1928 83.476 44.1447 84.1478 45.3936C84.8197 46.6414 85.1556 48.1559 85.1556 49.9355Z" fill="#5F6060"/>
    <path d="M96.9395 50.669L100.994 58.0959H97.1868L93.2198 50.669H96.9395ZM88.1299 58.0959V41.7755H94.5656C95.7982 41.7755 96.8503 41.9947 97.724 42.4331C98.5977 42.8715 99.2639 43.4899 99.7234 44.2895C100.183 45.0895 100.412 46.0279 100.412 47.1066C100.412 48.1906 100.179 49.1216 99.7114 49.8997C99.244 50.6784 98.5685 51.2744 97.6844 51.6888C96.7997 52.1031 95.7314 52.3108 94.478 52.3108H90.1694V49.5375H93.9209C94.5792 49.5375 95.1258 49.4467 95.5614 49.2662C95.997 49.0861 96.3219 48.8147 96.5374 48.4536C96.7528 48.0924 96.8602 47.6431 96.8602 47.1066C96.8602 46.5649 96.7528 46.1082 96.5374 45.7361C96.3219 45.364 95.9954 45.0812 95.5577 44.8875C95.1196 44.6934 94.5688 44.5963 93.9053 44.5963H91.5794V58.0959H88.1299Z" fill="#5F6060"/>
    <path d="M102.827 58.0959V41.7755H106.276V48.9713H106.491L112.361 41.7755H116.495L110.442 49.0825L116.567 58.0959H112.441L107.972 51.3861L106.276 53.458V58.0959H102.827Z" fill="#5F6060"/>
  </g>
  <defs>
    <linearGradient id="paint0_linear_1237_1026" x1="20.0834" y1="22.6423" x2="97.8285" y2="41.0242" gradientUnits="userSpaceOnUse">
      <stop stop-color="#1B75BB"/>
      <stop offset="1" stop-color="#00ADEE"/>
    </linearGradient>
    <linearGradient id="paint1_linear_1237_1026" x1="24.9183" y1="2.19428" x2="102.663" y2="20.5762" gradientUnits="userSpaceOnUse">
      <stop stop-color="#1B75BB"/>
      <stop offset="1" stop-color="#00ADEE"/>
    </linearGradient>
    <linearGradient id="paint2_linear_1237_1026" x1="70.2852" y1="11.143" x2="75.2333" y2="12.2339" gradientUnits="userSpaceOnUse">
      <stop stop-color="#1B75BB"/>
      <stop offset="1" stop-color="#00ADEE"/>
    </linearGradient>
    <linearGradient id="paint3_linear_1237_1026" x1="25.2439" y1="11.6639" x2="113.015" y2="31.0153" gradientUnits="userSpaceOnUse">
      <stop stop-color="#1B75BB"/>
      <stop offset="1" stop-color="#00ADEE"/>
    </linearGradient>
    <linearGradient id="paint4_linear_1237_1026" x1="27.1773" y1="20.2346" x2="85.2942" y2="39.9976" gradientUnits="userSpaceOnUse">
      <stop stop-color="#1B75BB"/>
      <stop offset="1" stop-color="#00ADEE"/>
    </linearGradient>
    <linearGradient id="paint5_linear_1237_1026" x1="30.2636" y1="11.1598" x2="88.3804" y2="30.9228" gradientUnits="userSpaceOnUse">
      <stop stop-color="#1B75BB"/>
      <stop offset="0.0539422" stop-color="#1B75BB"/>
      <stop offset="1" stop-color="#00ADEE"/>
    </linearGradient>
    <linearGradient id="paint6_linear_1237_1026" x1="66.9285" y1="15.1317" x2="86.7929" y2="19.8284" gradientUnits="userSpaceOnUse">
      <stop stop-color="#1B75BB"/>
      <stop offset="1" stop-color="#00ADEE"/>
    </linearGradient>
    <linearGradient id="paint7_linear_1237_1026" x1="65.7484" y1="1.29112" x2="90.1316" y2="7.05624" gradientUnits="userSpaceOnUse">
      <stop stop-color="#1B75BB"/>
      <stop offset="1" stop-color="#00ADEE"/>
    </linearGradient>
    <linearGradient id="paint8_linear_1237_1026" x1="54.9467" y1="2.63694" x2="74.8125" y2="7.33399" gradientUnits="userSpaceOnUse">
      <stop stop-color="#1B75BB"/>
      <stop offset="1" stop-color="#00ADEE"/>
    </linearGradient>
    <linearGradient id="paint9_linear_1237_1026" x1="47.6518" y1="15.2511" x2="75.7557" y2="21.8959" gradientUnits="userSpaceOnUse">
      <stop stop-color="#1B75BB"/>
      <stop offset="1" stop-color="#00ADEE"/>
    </linearGradient>
    <linearGradient id="paint10_linear_1237_1026" x1="61.0273" y1="18.1259" x2="81.0615" y2="22.8627" gradientUnits="userSpaceOnUse">
      <stop stop-color="#1B75BB"/>
      <stop offset="1" stop-color="#00ADEE"/>
    </linearGradient>
  </defs>
</svg>
