<svg width="180" height="54" viewBox="0 0 180 54" fill="none" xmlns="http://www.w3.org/2000/svg">
    <g clip-path="url(#clip0_1807_4118)">
        <path
            d="M173.333 53.3335H6.66667C3 53.3335 0 50.3335 0 46.6668V6.66683C0 3.00017 3 0.000165939 6.66667 0.000165939H173.333C177 0.000165939 180 3.00017 180 6.66683V46.6668C180 50.3335 177 53.3335 173.333 53.3335Z"
            fill="#100F0D" />
        <path
            d="M173.333 0.000165939H6.66667C3 0.000165939 0 3.00017 0 6.66683V46.6668C0 50.3335 3 53.3335 6.66667 53.3335H173.333C177 53.3335 180 50.3335 180 46.6668V6.66683C180 3.00017 177 0.000165939 173.333 0.000165939ZM173.333 1.0663C176.421 1.0663 178.933 3.57883 178.933 6.66683V46.6668C178.933 49.7549 176.421 52.2674 173.333 52.2674H6.66667C3.57864 52.2674 1.06719 49.7549 1.06719 46.6668V6.66683C1.06719 3.57883 3.57864 1.0663 6.66667 1.0663H173.333Z"
            fill="#A2A2A1" />
        <path
            d="M61.2604 11.5735C61.1731 11.3063 61.058 11.0669 60.9152 10.8553C60.775 10.6411 60.607 10.4585 60.4113 10.3078C60.2182 10.157 59.9986 10.0419 59.7526 9.96256C59.5066 9.88321 59.2368 9.84353 58.9432 9.84353C58.4618 9.84353 58.024 9.96785 57.6298 10.2165C57.2357 10.4651 56.9222 10.8315 56.6895 11.3156C56.4567 11.7997 56.3403 12.3935 56.3403 13.0971C56.3403 13.8007 56.458 14.3946 56.6934 14.8787C56.9289 15.3627 57.2476 15.7291 57.6497 15.9778C58.0517 16.2264 58.5041 16.3507 59.0067 16.3507C59.4722 16.3507 59.8822 16.2515 60.2367 16.0531C60.5938 15.8521 60.8715 15.5691 61.0699 15.204C61.271 14.8363 61.3715 14.4039 61.3715 13.9066L61.673 13.97H59.2289V13.0971H62.3237V13.97C62.3237 14.6393 62.1809 15.2212 61.8952 15.7159C61.6122 16.2105 61.2207 16.5941 60.7208 16.8665C60.2235 17.1363 59.6521 17.2713 59.0067 17.2713C58.2872 17.2713 57.655 17.102 57.1101 16.7634C56.5678 16.4248 56.1446 15.9434 55.8404 15.3191C55.5388 14.6948 55.388 13.9542 55.388 13.0971C55.388 12.4543 55.474 11.8764 55.6459 11.3632C55.8205 10.8474 56.0665 10.4083 56.3839 10.0459C56.7014 9.68349 57.077 9.40575 57.5108 9.21265C57.9446 9.01955 58.4221 8.923 58.9432 8.923C59.3717 8.923 59.7711 8.9878 60.1415 9.11742C60.5144 9.24439 60.8464 9.42559 61.1374 9.66101C61.431 9.89379 61.6757 10.1729 61.8714 10.4982C62.0672 10.8209 62.2021 11.1794 62.2761 11.5735H61.2604ZM64.0091 17.1602V9.0341H68.9133V9.90701H64.9931V12.6527H68.6593V13.5256H64.9931V16.2872H68.9768V17.1602H64.0091ZM70.2425 9.90701V9.0341H76.337V9.90701H73.7818V17.1602H72.7978V9.90701H70.2425ZM81.9822 9.0341V17.1602H80.9982V9.0341H81.9822ZM83.5108 9.90701V9.0341H89.6054V9.90701H87.0501V17.1602H86.0661V9.90701H83.5108ZM101.123 13.0971C101.123 13.9542 100.968 14.6948 100.659 15.3191C100.349 15.9434 99.9246 16.4248 99.385 16.7634C98.8454 17.102 98.2291 17.2713 97.536 17.2713C96.843 17.2713 96.2266 17.102 95.687 16.7634C95.1474 16.4248 94.7228 15.9434 94.4134 15.3191C94.1039 14.6948 93.9491 13.9542 93.9491 13.0971C93.9491 12.2401 94.1039 11.4994 94.4134 10.8752C94.7228 10.2509 95.1474 9.76946 95.687 9.43088C96.2266 9.09229 96.843 8.923 97.536 8.923C98.2291 8.923 98.8454 9.09229 99.385 9.43088C99.9246 9.76946 100.349 10.2509 100.659 10.8752C100.968 11.4994 101.123 12.2401 101.123 13.0971ZM100.171 13.0971C100.171 12.3935 100.053 11.7997 99.8175 11.3156C99.5847 10.8315 99.2686 10.4651 98.8692 10.2165C98.4724 9.96785 98.028 9.84353 97.536 9.84353C97.044 9.84353 96.5983 9.96785 96.1989 10.2165C95.8021 10.4651 95.486 10.8315 95.2506 11.3156C95.0178 11.7997 94.9014 12.3935 94.9014 13.0971C94.9014 13.8007 95.0178 14.3946 95.2506 14.8787C95.486 15.3627 95.8021 15.7291 96.1989 15.9778C96.5983 16.2264 97.044 16.3507 97.536 16.3507C98.028 16.3507 98.4724 16.2264 98.8692 15.9778C99.2686 15.7291 99.5847 15.3627 99.8175 14.8787C100.053 14.3946 100.171 13.8007 100.171 13.0971ZM109.221 9.0341V17.1602H108.269L103.841 10.7799H103.761V17.1602H102.777V9.0341H103.73L108.174 15.4302H108.253V9.0341H109.221Z"
            fill="white" />
        <path
            d="M142.581 40.0002H145.069V23.3314H142.581V40.0002ZM164.991 29.3362L162.139 36.5627H162.053L159.093 29.3362H156.413L160.853 39.4362L158.321 45.0549H160.916L167.757 29.3362H164.991ZM150.88 38.107C150.067 38.107 148.929 37.6991 148.929 36.6914C148.929 35.4048 150.345 34.9116 151.567 34.9116C152.66 34.9116 153.176 35.1471 153.84 35.469C153.647 37.0132 152.317 38.107 150.88 38.107ZM151.181 28.9715C149.38 28.9715 147.515 29.7652 146.743 31.5236L148.951 32.4455C149.423 31.5236 150.301 31.2236 151.224 31.2236C152.511 31.2236 153.819 31.995 153.84 33.3679V33.5392C153.389 33.2819 152.424 32.896 151.245 32.896C148.864 32.896 146.441 34.2038 146.441 36.6486C146.441 38.8788 148.393 40.3158 150.58 40.3158C152.252 40.3158 153.176 39.5652 153.753 38.6856H153.84V39.9731H156.243V33.5819C156.243 30.6226 154.032 28.9715 151.181 28.9715ZM135.805 31.3652H132.267V25.6518H135.805C137.665 25.6518 138.721 27.1914 138.721 28.5084C138.721 29.8002 137.665 31.3652 135.805 31.3652ZM135.741 23.3314H129.78V40.0002H132.267V33.6851H135.741C138.499 33.6851 141.209 31.6892 141.209 28.5084C141.209 25.3283 138.499 23.3314 135.741 23.3314ZM103.233 38.11C101.514 38.11 100.076 36.6704 100.076 34.695C100.076 32.6966 101.514 31.2366 103.233 31.2366C104.93 31.2366 106.262 32.6966 106.262 34.695C106.262 36.6704 104.93 38.11 103.233 38.11ZM106.09 30.2695H106.004C105.445 29.6038 104.371 29.0023 103.018 29.0023C100.182 29.0023 97.5834 31.4944 97.5834 34.695C97.5834 37.8736 100.182 40.3439 103.018 40.3439C104.371 40.3439 105.445 39.7423 106.004 39.0554H106.09V39.871C106.09 42.0413 104.93 43.2007 103.061 43.2007C101.536 43.2007 100.591 42.1054 100.204 41.1819L98.035 42.084C98.6574 43.5871 100.311 45.4351 103.061 45.4351C105.983 45.4351 108.453 43.7163 108.453 39.5272V29.346H106.09V30.2695ZM110.172 40.0002H112.663V23.3314H110.172V40.0002ZM116.336 34.5012C116.272 32.31 118.034 31.1934 119.301 31.1934C120.289 31.1934 121.126 31.6876 121.406 32.396L116.336 34.5012ZM124.069 32.6106C123.596 31.3439 122.157 29.0023 119.215 29.0023C116.293 29.0023 113.866 31.3007 113.866 34.6731C113.866 37.8523 116.272 40.3439 119.493 40.3439C122.092 40.3439 123.596 38.7548 124.22 37.8308L122.286 36.5418C121.642 37.4871 120.762 38.11 119.493 38.11C118.227 38.11 117.324 37.5299 116.745 36.3914L124.327 33.2554L124.069 32.6106ZM63.6585 30.7423V33.148H69.4151C69.2433 34.5012 68.7922 35.4892 68.1047 36.1767C67.2667 37.0142 65.9563 37.9382 63.6585 37.9382C60.1141 37.9382 57.3433 35.0814 57.3433 31.5371C57.3433 27.9928 60.1141 25.1356 63.6585 25.1356C65.5703 25.1356 66.9662 25.8876 67.9974 26.8543L69.6949 25.157C68.2553 23.7824 66.3438 22.7299 63.6585 22.7299C58.8031 22.7299 54.7219 26.6824 54.7219 31.5371C54.7219 36.3914 58.8031 40.3439 63.6585 40.3439C66.2787 40.3439 68.2553 39.4846 69.8017 37.8736C71.3913 36.284 71.8855 34.0502 71.8855 32.2455C71.8855 31.6876 71.8422 31.172 71.7563 30.7423H63.6585ZM78.4303 38.11C76.7115 38.11 75.2293 36.6923 75.2293 34.6731C75.2293 32.6324 76.7115 31.2366 78.4303 31.2366C80.1485 31.2366 81.6307 32.6324 81.6307 34.6731C81.6307 36.6923 80.1485 38.11 78.4303 38.11ZM78.4303 29.0023C75.2933 29.0023 72.7375 31.3866 72.7375 34.6731C72.7375 37.9382 75.2933 40.3439 78.4303 40.3439C81.5662 40.3439 84.1225 37.9382 84.1225 34.6731C84.1225 31.3866 81.5662 29.0023 78.4303 29.0023ZM90.8474 38.11C89.1298 38.11 87.647 36.6923 87.647 34.6731C87.647 32.6324 89.1298 31.2366 90.8474 31.2366C92.5662 31.2366 94.0479 32.6324 94.0479 34.6731C94.0479 36.6923 92.5662 38.11 90.8474 38.11ZM90.8474 29.0023C87.7115 29.0023 85.1558 31.3866 85.1558 34.6731C85.1558 37.9382 87.7115 40.3439 90.8474 40.3439C93.9845 40.3439 96.5402 37.9382 96.5402 34.6731C96.5402 31.3866 93.9845 29.0023 90.8474 29.0023Z"
            fill="white" />
        <path
            d="M27.6228 25.8993L13.4275 40.966C13.428 40.9691 13.4291 40.9717 13.4296 40.9748C13.865 42.6107 15.3592 43.8154 17.1327 43.8154C17.8416 43.8154 18.5072 43.6238 19.078 43.2873L19.1234 43.2607L35.102 34.0405L27.6228 25.8993Z"
            fill="#EB3131" />
        <path
            d="M41.9844 23.3334L41.9708 23.324L35.0724 19.325L27.3005 26.2407L35.0995 34.0386L41.9615 30.0792C43.1645 29.4298 43.9812 28.1615 43.9812 26.699C43.9812 25.247 43.1755 23.985 41.9844 23.3334Z"
            fill="#F6B60B" />
        <path
            d="M13.4271 12.3699C13.3417 12.6846 13.2969 13.0142 13.2969 13.3565V39.9799C13.2969 40.3216 13.3412 40.6523 13.4276 40.9658L28.1115 26.2846L13.4271 12.3699Z"
            fill="#5778C5" />
        <path
            d="M27.7275 26.668L35.075 19.3226L19.1145 10.069C18.5343 9.72157 17.8573 9.52104 17.1327 9.52104C15.3593 9.52104 13.863 10.7278 13.4275 12.3658C13.427 12.3674 13.427 12.3685 13.427 12.37L27.7275 26.668Z"
            fill="#3BAD49" />
    </g>
    <defs>
        <clipPath id="clip0_1807_4118">
            <rect width="180" height="53.3333" fill="white" />
        </clipPath>
    </defs>
</svg>